<?xml version="1.0" encoding="UTF-8"?>
<svg id="Layer_2" data-name="Layer 2" xmlns="http://www.w3.org/2000/svg" viewBox="0 0 266.11 264.93">
  <defs>
    <style>
      .cls-1 {
        fill: #fff;
      }
    </style>
  </defs>
  <g id="Layer_1-2" data-name="Layer 1">
    <g>
      <path class="cls-1" d="M153.18,264.26l15.12-4.71c92.6-34.85,81.89-171.04-14.34-190.84C35.93,44.43-15.2,209.92,93.55,257.88l19.3,6.38c-52.26-6.87-96.47-47.89-108.96-98.83C-14.6,90.03,34.77,13.92,111.41,1.73c94.48-15.02,173.27,70.1,150.85,163.18-12.29,51.02-56.69,92.58-109.08,99.36Z"/>
      <path class="cls-1" d="M142.77,264.91l8.4-4.28c24.78-15.95,16.9-56.02-11.62-60.46-37.08-5.77-54.55,40.11-24.31,60.72l7.68,4.03c-50.23-7.76-73.87-66.5-41.93-106.97,28.45-36.04,85.18-32.38,108.88,6.86,24.71,40.91-.24,93.38-47.1,100.09Z"/>
    </g>
  </g>
</svg>