<?xml version="1.0" encoding="UTF-8"?>
<svg id="Layer_2" data-name="Layer 2" xmlns="http://www.w3.org/2000/svg" viewBox="0 0 220.26 285.78">
  <g id="Layer_1-2" data-name="Layer 1">
    <g>
      <path d="M120.8,139.35l7.97-2.48c48.83-18.38,43.18-90.19-7.56-100.63-62.24-12.8-89.2,74.46-31.86,99.75l10.18,3.37c-27.56-3.62-50.87-25.25-57.45-52.11C32.33,47.47,58.36,7.34,98.78.91c49.82-7.92,91.37,36.97,79.55,86.04-6.48,26.9-29.89,48.82-57.52,52.39Z"/>
      <path d="M115.31,139.69l4.43-2.26c13.06-8.41,8.91-29.54-6.13-31.88-19.55-3.04-28.76,21.15-12.82,32.02l4.05,2.12c-26.49-4.09-38.95-35.07-22.11-56.4,15-19,44.92-17.07,57.41,3.62,13.03,21.57-.12,49.24-24.84,52.78Z"/>
      <path d="M145.15,226.11c-1.19-.17-2.95,1.35-3.28,2.38-.43,1.37.14,2.18.07,3.23-.24,3.9-.51,5.51-3.14,8.46-1.18,1.31-3.03,3.64-4.98,2.56s-2.6-9.88-2.41-12.17c-1.08.86-2.17,1.88-3.07,2.92-.64.73-1.03,1.96-1.49,2.46-.36.39-5.42,3.79-6.05,4.06-11.47,4.97-21.41-4-23.51-14.94-1.12,2.47-2.57,4.83-3.66,7.32-1.64,3.73-2.25,8.2-5.59,10.86-.73-.17-1.21-5.65-1.22-6.67-.08-5.32,1.53-10.99,1.22-16.31-1.27,9.96-7.03,19-17.84,19.89-5.09.42-9.63-.02-13.37-3.76-1.1,1.81-1.82,3.06-3.7,4.18-6.43,3.83-16.65,1.7-23.31-.84-4.41-1.68-8.57-3.98-12.94-5.74.38,5.11-.96,9.92-7.04,9.26-4.91-.53-11.66-10.4-9.39-14.87,1.62-3.18,8.24-1.13,10.93-.22l-1.71-12.18c-.62-12.35-2.35-25.89-.99-38.36.04-.35.14-1.61.64-1.58-.1,2.84,1.37,5.55.69,8.23.53-.09.66-.65.79-1.09.19-.62.02-1.86.57-1.99l2.41,35.83,2.05,12.95c7.11,3.73,14.27,7.58,22.15,9.49,4.69,1.13,14.02,3,17.3-1.51,1.83-2.52.05-3.13-.71-5.47-3.27-10.16,3.91-26.7,9.11-35.51.35.76-.57,1.52-.78,2.31-.16.6.01,1.3-.16,1.89-.49,1.66-1.15,3.36-1.97,4.89.4.57.74-.09.97-.4.12-.15,1.39-3.12,1.42-1.67-2.44,6.95-7.83,22.61-3.71,29.11,2.71,4.27,10.39,3.86,14.59,2.35,10.96-3.96,11.22-19.31,11.1-29.05-.03-2.55-1.82-10.11,2.88-9.4,3.2.48,3.91,6.82,3.98,9.4.27,9.44-1.65,20.63-2.41,30.2-.03.38-.15,1.53.17,1.54l7.3-13.97c-.33-8.52-.06-17.77,7.2-23.42,5.36-4.17,16.49-2.66,21.69,1.38l-5.14-1.03,1.37,1.71c-11.49-2.17-19.43-.54-21.23,12.22-2.87,20.39,13.29,31.74,28.78,16.42,2.85-2.82,1.45-5.53,1.71-9.26.24-3.37.62-6.93,1.03-10.29.53-4.4,1.16-9.02,2.57-13.2.93.87.39,2.32.52,3.43l1.37-1.37c1.04,6.46-.77,12.68-1.37,19.03-.31,3.28-.66,7.37-.7,10.61,0,.82.22,8.77.88,8.76,4.46-2.59,3.75-10.64,7.53-13.05.49-.31,1.69-.56,1.83-.75.22-.29.96-5.91,1.27-7.13,2.52-9.8,10.99-21.53,22.47-18.7,7.75,1.91,12.68,11.65,7.53,18.53-4.53,6.05-19.44,9.82-26.75,10.46l6.52-3.08-3.08-.34c5.91-2.03,15.21-4.85,19.72-9.27,4.64-4.54-.17-11.82-5.57-12.59-10.84-1.56-18,13-18.62,22.01-.28,4.11-.99,12.58,4.38,13.48,6.31,1.05,18.75-7.18,23.87-10.95.66-.48,4.47-3.19,4.62-3.44.26-.45.01-2.52.16-3.44,1.46-8.85,10.21-15.69,17.97-19.07,2.68-1.16,5.78-2.34,8.7-2.45l-10.63,5.32c-1.04,1.14,1.87-.31,2.04-.36.24-.07,1.36-.46.88.19-6.67,3.38-14.52,9.65-15.26,17.66-.44,4.81.12,12.55,5.48,14.4,7.56,2.6,14.23-6.12,17.15-12.03-.51-5.48-4.88-13.97-2.75-19.19,1.43-3.5,5.88-5.2,8.39-1.85,2.74,3.66,1.5,12.77.29,17.05-.38,1.34-1.96,4.23-2.05,5.09-.18,1.65,1.41,6.18,1.78,8.02l4.63-3.77-4.72,4.67c1.06,5.82,1.02,11.72.95,17.62h5.83v.69h-6.17c-1.28,7.79-8.51,13.39-16.35,10.35-4.48-1.74-6.04-5.89-4.57-10.35H.07v-.69h193.62l16.46-15.44c.64-1.39-.71-4.57-.86-6.17-5.27,7.54-14.33,14.47-23.3,7.69-4.28-3.24-4.23-8.32-4.83-13.18-2.33,1.69-4.67,3.44-6.86,5.31-2.6,2.22-4.54,4.45-7.56,6.5-4.78,3.25-13.28,7.39-18.48,2.74-1.32-1.18-3.11-5.17-3.11-6.84v-6.69ZM209.98,218.22c.65-.12.57-.71.7-1.18.53-1.9,1.53-11.28-.57-11.81-4.58,2.14-.07,9.18-.13,12.99ZM4.06,229.93c-1.38.45.88,4.45,1.42,5.33,1.28,2.08,3.15,4.08,5.68,4.48,2.62-.27,2.12-6.17.92-7.64-.82-1.01-6.75-2.58-8.02-2.17ZM197.28,252.17h13.55c.34-.22.44-.47.51-.86.3-1.65.12-6.36.01-8.24s-.55-3.82-.88-5.65c-1.12.02-5.62,6.25-6.68,7.38-.83.9-7.48,6.45-6.52,7.36ZM196.43,252.86c-2.37,2.7-1.22,5.97,1.78,7.48,4.47,2.26,9.37.34,11.67-3.98.28-.52,1.66-3.5.61-3.5h-14.06Z"/>
      <path d="M152.01,277.2c-1.21,9.63-15.67,8.01-14.75-1.54.66-6.88,11.2-8.72,13.72-2.23-1.56.3-2.02-1.09-3.19-1.78-6.36-3.8-12.78,4.95-6.77,9.51,3.18,2.41,8.37,1.13,8.93-2.92h-7.55v-1.03h9.6Z"/>
      <path d="M203.46,277.2c-1.27,9.6-15.67,8.06-14.75-1.54.66-6.88,11.2-8.72,13.72-2.23-1.94.47-1.63-.67-2.76-1.52-6.04-4.53-13.58,4.4-7.19,9.25,3.18,2.41,8.37,1.13,8.93-2.92h-7.55v-1.03h9.6Z"/>
      <polygon points="51.17 280.63 51.17 269.66 52.54 269.66 52.54 283.37 50.9 283.3 42.94 271.72 42.94 283.37 41.57 283.37 41.57 269.66 43.8 270 51.17 280.63"/>
      <path d="M120.11,269.66c.48,0,1-.08,1.47.07,1.22.4,6.02,8.78,7.35,10.47.22.28-.01.63.79.43v-10.97h1.37v13.72l-1.88-.35-7.72-11.31v11.66h-1.37v-13.72Z"/>
      <path d="M27.79,269.4c7.26-.51,10.74,9.13,4.3,13.24-3.32,2.12-7.91,1.06-10.01-2.23-3.02-4.75.27-10.62,5.71-11.01ZM27.42,270.76c-7.58,1.1-6.16,12.82,1.95,11.56,7.17-1.11,5.5-12.64-1.95-11.56Z"/>
      <path d="M143.78,179.47c.04.58-.68.26-.97.91-.3.69-.19,2.09-.49,2.94s-1.2,1.98-1.63,3.17c-.83,2.3-1.7,4.61-2.06,7.04l-3.01-.76c-1.05-1.99.14-4.34,1.01-6.23,1.29-2.8,3.89-6.58,7.15-7.08Z"/>
      <path d="M15.5,273.43c-.73.67-2.6-1.76-3.78-2.22-9.57-3.71-10.91,12.88-.93,11.06,2.18-.4,2.85-2.67,5.05-2.32-4.84,8.22-16.99,1.93-12.63-6.97,1.94-3.95,8.14-4.75,11.22-1.74.32.32,1.46,1.83,1.06,2.19Z"/>
      <path d="M66.26,273.09l-1.32-.06c-.34-3.25-5.04-2.79-4.85.2.22,3.39,7.17,1.12,6.52,7.23-.5,4.67-8.59,4.24-8.24-.86l1.31.06c1.2,5.72,8.37,1.07,4.49-1.92-2-1.54-5.38-.86-5.49-4.48-.15-4.99,7.59-5.23,7.57-.18Z"/>
      <path d="M73.81,269.66v10.12c0,3.34,6.52,3.34,6.52,0v-10.12h1.37v10.46c0,1.82-2.55,3.57-4.28,3.63-1.98.07-4.98-1.46-4.98-3.63v-10.46h1.37Z"/>
      <polygon points="106.39 269.66 106.39 271.03 103.31 271.03 103.31 283.37 101.93 283.37 101.93 271.03 98.85 271.03 98.85 269.66 106.39 269.66"/>
      <polygon points="179.11 269.66 179.11 281.83 179.62 282.35 184.94 282.35 184.94 283.37 177.73 283.37 177.73 269.66 179.11 269.66"/>
      <polygon points="89.93 269.66 89.93 282.35 95.42 282.35 95.42 283.37 88.56 283.37 88.56 269.66 89.93 269.66"/>
      <path d="M171.83,270.96c-.07.13-1.7,1.16-2.27,2.01-2,2.97-1.99,7.07.29,9.89.82,1.02,2.66,1.43,1.88,2.92-6.7-3.17-6.74-13.03,0-16.12.33.14.22,1.05.09,1.3Z"/>
      <path d="M208.61,285.77c-.4-1.63.89-1.58,1.55-2.39,2.98-3.65,2.98-7.7,0-11.35-.66-.81-1.95-.75-1.55-2.39,6.83,2.95,6.97,13.23,0,16.12Z"/>
      <rect x="111.88" y="269.66" width="1.37" height="13.72"/>
    </g>
  </g>
</svg>