<?xml version="1.0" encoding="UTF-8"?>
<svg id="Layer_2" data-name="Layer 2" xmlns="http://www.w3.org/2000/svg" viewBox="0 0 322.98 302.52">
  <defs>
    <style>
      .cls-1 {
        fill: #fff;
      }

      .cls-1, .cls-2, .cls-3 {
        fill-rule: evenodd;
      }

      .cls-2, .cls-4 {
        fill: #3c5699;
      }

      .cls-3 {
        fill: #d04145;
      }
    </style>
  </defs>
  <g id="Layer_1-2" data-name="Layer 1">
    <g>
      <rect class="cls-4" y=".1" width="322.98" height="302.42"/>
      <path class="cls-1" d="M235.48,282.57c-1.03-6.99-1.95-10.28-3.29-14.29l-10.18-32.49h-45.24l-8.12,10.69,7.3,22c1.44,4.63,2.98,8.23,5.65,14.09h-25.71l-4.21-14.09-10.28,14.09h-20.67l-4.42-13.98-10.9,13.98h-20.67c.51-.41.93-.82,1.34-1.23,5.24-4.63,8.54-8.84,11.41-12.65l13.16-17.28-5.14-15.63h-45.14l-35.27,46.79H3.19c8.33-7.2,10.49-9.46,13.57-13.57l66.84-88.33c.92-1.2,1.74-2.48,2.47-3.8,1.23-2.06,2.37-4.42,2.98-7.3h21.7c0,4.83.72,7.51,1.75,11.21l15.22,47.71,7.82-10.28-12.44-37.94c-.93-2.78-2.06-6.38-4.32-10.69h26.32c.72,4.22,1.44,7.61,2.57,11.31l4.83,14.91,11.31-15.01c2.57-3.5,6.07-7.4,7.61-11.21h23.03c-4.52,3.6-7.4,7.4-10.18,11l-25.5,33.83,4.42,13.99,36.51-47.71c.92-1.44,1.95-2.67,2.98-4.01,1.33-2.06,2.47-4.21,3.19-7.1h21.49c.31,3.8.82,7.1,1.85,10.59l27.66,88.23c1.33,4.73,2.26,7.61,5.76,14.19h-27.14s0,0,0,0Z"/>
      <path class="cls-2" d="M70.64,221.8h30.85l-9.36-28.48-21.49,28.48ZM133.37,245.86l4.94,15.63,7.92-10.39-5.45-15.32-7.4,10.08ZM187.76,221.8h29.82l-9.36-28.48-20.46,28.48h0Z"/>
      <path class="cls-3" d="M176.76,163.8h18.92L319.28,0h-18.92l-123.6,163.8h0Z"/>
    </g>
  </g>
</svg>