<?xml version="1.0" encoding="UTF-8"?>
<svg id="Layer_2" data-name="Layer 2" xmlns="http://www.w3.org/2000/svg" viewBox="0 0 322.71 322.34">
  <defs>
    <style>
      .cls-1 {
        fill: #fff;
      }

      .cls-2 {
        fill: #f04b5f;
      }
    </style>
  </defs>
  <g id="Layer_1-2" data-name="Layer 1">
    <g>
      <path class="cls-2" d="M157.11.06c125.47-3.19,206.95,133.26,143.66,242.4-59.5,102.6-207.64,107.34-273.53,8.58C-43.13,145.6,30.91,3.27,157.11.06Z"/>
      <path class="cls-1" d="M207.19,53.62h-39.9v169.58h-38.4c-5.31,0-16.63-5.45-20.49-9.43-13-13.39-12.49-45.29,3.1-56.83,2.78-2.05,12.25-6.55,15.39-6.55h33.42c.18-6-1.4-11.94-2.68-17.77-.72-3.31-4.9-21.31-6.94-21.99-45.02-3.86-83.93,11.12-91.85,59.49-7.43,45.38,14.87,85.61,62.19,91.87,27.62,3.65,58.18-.41,86.16,1.12v-113.72h61.85v-38.9h-61.85v-56.86Z"/>
    </g>
  </g>
</svg>