<svg width="80" height="80" viewBox="0 0 80 80" fill="none" xmlns="http://www.w3.org/2000/svg">
<path d="M39.9354 0C42.0573 0 44.1091 0.760144 45.7185 2.14265L49.2235 5.2128C50.7601 4.89903 52.3049 4.58761 53.8617 4.29704L54.6485 4.1855C56.4834 4.0065 58.3359 4.40246 59.9442 5.3302C61.7825 6.39096 63.1812 8.07677 63.8838 10.0792C64.401 11.5516 64.8873 13.0227 65.375 14.4819C66.8622 14.9802 68.36 15.4846 69.8606 16.0082H69.8664C74.0039 17.463 76.4565 21.7192 75.6495 26.0288C75.3549 27.5995 75.0316 29.1557 74.716 30.7015C75.7574 31.8795 76.8102 33.0643 77.8512 34.2765L78.3385 34.8987C79.4131 36.3982 79.9985 38.2009 80 40.0587C80.0016 42.1821 79.2407 44.236 77.857 45.8468C76.8263 47.0486 75.7798 48.2261 74.7395 49.3983C75.0498 50.9129 75.3624 52.4378 75.6495 53.9771H75.6436C76.0354 56.0605 75.6702 58.2166 74.6103 60.0528C73.5499 61.8888 71.867 63.2834 69.8664 63.9859C68.3671 64.5121 66.8669 65.01 65.3809 65.5063C64.8901 66.9736 64.3998 68.4492 63.8838 69.9208C63.1826 71.9228 61.7868 73.608 59.9501 74.6698C58.1125 75.7318 55.9535 76.1011 53.8676 75.7088H53.8617C52.3459 75.4229 50.8349 75.1126 49.3234 74.8048C48.1745 75.8226 47.0237 76.849 45.8476 77.8574L45.8418 77.8515C44.2331 79.2334 42.1855 79.9993 40.0646 80C37.9439 80 35.8905 79.2384 34.2815 77.8574L30.7706 74.7813C29.2321 75.0955 27.6853 75.4062 26.1265 75.6971L26.1324 75.703C24.0472 76.0962 21.8878 75.7303 20.0499 74.6698C18.2124 73.6094 16.819 71.9223 16.1162 69.9208C15.6029 68.4569 15.1112 66.9833 14.6191 65.5122C13.1224 65.0136 11.6227 64.5186 10.1336 63.9977V63.9918C8.12968 63.289 6.44462 61.8923 5.38383 60.0528C4.32277 58.2129 3.95449 56.052 4.35051 53.9654C4.64471 52.3937 4.95705 50.8372 5.27227 49.2926C4.22363 48.1067 3.17399 46.919 2.14296 45.7176C0.760299 44.1085 0 42.057 0 39.9354C7.33372e-05 37.8121 0.763899 35.757 2.14883 34.1473C3.18245 32.9457 4.22193 31.7619 5.26053 30.59L4.35638 26.0346C3.96105 23.9492 4.3297 21.7921 5.3897 19.953C6.45068 18.1133 8.13509 16.7109 10.1394 16.0082L14.6191 14.4819C15.1077 13.0183 15.6039 11.5456 16.1221 10.0734C16.8249 8.07476 18.221 6.39587 20.0558 5.33607C21.8921 4.27549 24.0482 3.90581 26.1324 4.29704C27.6546 4.58317 29.1665 4.88477 30.6708 5.18932C31.8174 4.17506 32.9728 3.15788 34.1465 2.14852C35.7564 0.763756 37.8117 3.97479e-05 39.9354 0ZM50.0103 25.7529C51.2402 24.6379 53.14 24.7286 54.2551 25.9583C55.3698 27.1876 55.2783 29.0874 54.0496 30.2025C49.9143 33.9512 47.0511 37.0973 44.6793 40.7984C42.2958 44.5177 40.3216 48.926 38.1036 55.292C37.7606 56.2767 36.932 57.0161 35.9137 57.241C34.8959 57.465 33.8328 57.1438 33.1073 56.3957L23.5374 46.5277L25.6979 44.4379L27.8526 42.3422L34.0936 48.7819C35.8073 44.384 37.545 40.7938 39.6184 37.558C42.3746 33.2571 45.6451 29.71 50.0103 25.7529ZM23.6019 42.2777C24.7935 41.1226 26.6969 41.1517 27.8526 42.3422L23.5374 46.5277C22.3821 45.3363 22.4111 43.4332 23.6019 42.2777ZM6.01204 39.9354C6.01204 40.448 6.14885 40.9487 6.4054 41.3854L6.70483 41.8022C8.03964 43.3575 9.39104 44.9048 10.7559 46.4338C11.3902 47.1451 11.6493 48.1133 11.4546 49.0461C11.0383 51.0321 10.6436 53.0459 10.2627 55.0807L10.2569 55.0866C10.1291 55.7595 10.2493 56.4598 10.5915 57.0531C10.9338 57.6455 11.4781 58.0948 12.1239 58.3211L17.9187 60.2876L18.5645 60.5812C19.161 60.9491 19.6145 61.5217 19.8385 62.2014C20.4694 64.1169 21.1203 66.0276 21.7878 67.9307C22.0145 68.576 22.4635 69.121 23.0559 69.4629C23.6485 69.8048 24.3446 69.9183 25.0169 69.7916H25.0228C27.0405 69.4151 29.0418 69.0218 31.023 68.6058L31.7276 68.5412C32.432 68.5613 33.1179 68.8293 33.6533 69.3102L38.1917 73.2903L38.1976 73.2962C38.7165 73.7416 39.3806 73.9888 40.0646 73.9888C40.7475 73.9882 41.4076 73.7409 41.9257 73.2962L41.9316 73.2903C43.4623 71.9779 44.9698 70.6556 46.4524 69.3279L47.0277 68.9228C47.6455 68.5892 48.369 68.483 49.0709 68.6293C51.0356 69.0389 53.0051 69.4254 54.9772 69.7975C55.6501 69.9242 56.3454 69.8054 56.9382 69.4629C57.5311 69.1202 57.9804 68.5771 58.2064 67.9307H58.2122C58.8833 66.0172 59.5284 64.1064 60.1556 62.2014C60.4541 61.2947 61.1684 60.5856 62.0754 60.2876C63.9949 59.6572 65.9258 58.9976 67.8702 58.3152H67.8761C68.5202 58.0886 69.0609 57.6383 69.4026 57.0473C69.7446 56.4548 69.8639 55.7587 69.7373 55.0866V55.0807C69.3649 53.0847 68.9747 51.1089 68.563 49.1576C68.3653 48.2203 68.6224 47.2411 69.2617 46.5277C70.6131 45.022 71.959 43.4893 73.2952 41.9313L73.5946 41.5145C73.8512 41.0776 73.9881 40.5774 73.988 40.0646C73.9874 39.3799 73.7421 38.7166 73.2952 38.1978L73.2893 38.192C71.9394 36.6199 70.5873 35.0778 69.2382 33.5662C68.6036 32.8542 68.3439 31.8815 68.5396 30.948C68.9559 28.9616 69.3564 26.9505 69.7373 24.9193C69.9978 23.5209 69.2061 22.1485 67.8761 21.6789C65.9289 20.9995 63.9921 20.3478 62.0696 19.7124C61.1643 19.4131 60.4531 18.6985 60.1556 17.7928C59.533 15.8977 58.8867 13.9893 58.2122 12.0693C57.9857 11.4235 57.531 10.8792 56.9382 10.5371C56.3457 10.1957 55.6493 10.0757 54.9772 10.2025H54.9714C52.9536 10.5791 50.9523 10.9782 48.9711 11.3942C48.0341 11.5902 47.0591 11.3291 46.3467 10.6898C44.8663 9.36 43.3531 8.03255 41.8083 6.70972L41.8024 6.70385C41.2832 6.25726 40.6203 6.01115 39.9354 6.01115C39.2506 6.01119 38.5876 6.25729 38.0684 6.70385C36.5354 8.02217 35.0264 9.34645 33.5418 10.6721C32.8314 11.3058 31.8613 11.5639 30.9291 11.3707C28.9765 10.966 27.0078 10.5757 25.0228 10.2025C24.3509 10.0764 23.6538 10.1954 23.0618 10.5371C22.6179 10.7935 22.2549 11.1649 22.005 11.6055L21.7936 12.0693C21.1194 13.9847 20.4668 15.8942 19.8444 17.7928C19.5465 18.7001 18.8377 19.4139 17.9304 19.7124C16.0102 20.3431 14.0749 20.9962 12.1298 21.6789V21.6848C11.4836 21.9114 10.9395 22.3597 10.5974 22.9527C10.2556 23.5454 10.1358 24.2412 10.2627 24.9134V24.9193C10.6399 26.916 11.0341 28.8922 11.4428 30.8483C11.638 31.7825 11.3801 32.7548 10.7442 33.4664C9.39492 34.9742 8.04678 36.5086 6.70483 38.0687C6.25824 38.5877 6.01211 39.2507 6.01204 39.9354Z" fill="#8F8F8F"/>
</svg>
