<svg width="80" height="80" viewBox="0 0 80 80" fill="none" xmlns="http://www.w3.org/2000/svg">
<path d="M77.1714 27.4039C81.9566 22.619 79.7745 17.0302 77.1714 14.3123L65.6869 2.82849C60.8634 -1.95645 55.3126 0.22548 52.5946 2.82849L46.0868 9.37428H36.1718C28.8984 9.37428 24.6874 13.2022 22.5436 17.6044L5.54662 34.6005V49.9123L2.82864 52.5919C-1.95656 57.4151 0.225492 62.9656 2.82864 65.6834L14.3131 77.1673C16.3803 79.2344 18.6006 80 20.7061 80C23.4241 80 25.9124 78.6602 27.4054 77.1673L37.7414 66.7936H51.4845C57.9923 66.7936 61.2845 62.7359 62.4713 58.7549C66.7971 57.6065 69.1705 54.3144 70.1276 51.099C76.0612 49.5678 78.2815 43.9407 78.2815 39.9979V28.514H76.0229L77.1714 27.4039ZM70.6252 39.9979C70.6252 41.7205 69.8979 43.8259 66.7971 43.8259H62.9689V47.6538C62.9689 49.3764 62.2416 51.4818 59.1408 51.4818H55.3126V55.3097C55.3126 57.0323 54.5853 59.1377 51.4845 59.1377H34.6023L22.046 71.6933C20.8592 72.8035 20.1702 72.1527 19.7491 71.7316L8.30289 60.3243C7.19273 59.1377 7.84352 58.4486 8.26461 58.0275L13.2029 53.0512V37.7394L20.8592 30.0835V36.1699C20.8592 40.8018 23.9218 47.6538 32.3437 47.6538C40.7656 47.6538 43.8282 40.8018 43.8282 36.1699H70.6252V39.9979ZM71.7354 21.9682L65.2275 28.514H36.1718V36.1699C36.1718 37.8925 35.4445 39.9979 32.3437 39.9979C29.2429 39.9979 28.5155 37.8925 28.5155 36.1699V24.6861C28.5155 22.9252 29.1663 17.0302 36.1718 17.0302H49.2258L57.954 8.30246C59.1408 7.19235 59.8298 7.8431 60.2509 8.26418L71.6971 19.6715C72.8073 20.8581 72.1565 21.5472 71.7354 21.9682Z" fill="#8F8F8F"/>
</svg>
