<svg width="80" height="80" viewBox="0 0 80 80" fill="none" xmlns="http://www.w3.org/2000/svg">
<path d="M0 77.5V47.5C5.15406e-06 46.1193 1.11929 45 2.5 45C3.79388 45 4.85824 45.9829 4.98698 47.2428L5 47.5V50H20C23.3152 50 26.4937 51.3179 28.8379 53.6621C30.5839 55.4081 31.7628 57.6163 32.2493 60H42.5C45.8152 60 48.9937 61.3179 51.3379 63.6621C53.6821 66.0063 55 69.1848 55 72.5C55 73.8807 53.8807 75 52.5 75H5V77.5L4.98698 77.7572C4.85825 79.0171 3.79389 80 2.5 80C1.20611 80 0.141753 79.0171 0.0130208 77.7572L0 77.5ZM5 70H49.5605C49.1911 68.9565 48.6004 67.9949 47.8027 67.1973C46.5722 65.9668 44.9588 65.2064 43.2422 65.0358L42.5 65H20C18.6193 65 17.5 63.8807 17.5 62.5C17.5 61.1193 18.6193 60 20 60H27.0605C26.6911 58.9565 26.1004 57.9949 25.3027 57.1973C24.0722 55.9668 22.4588 55.2064 20.7422 55.0358L20 55H5V70ZM75 19.1667C75 18.0616 74.5607 17.0021 73.7793 16.2207C72.9979 15.4393 71.9384 15 70.8333 15H30.8333C29.7283 15 28.6688 15.4393 27.8874 16.2207C27.106 17.0021 26.6667 18.0616 26.6667 19.1667V23.3333H75V19.1667ZM45.3255 5C45.1291 4.99985 44.9388 5.0689 44.7884 5.19531C44.6374 5.32293 44.5344 5.50161 44.502 5.69661L43.7858 10H57.8776L57.1549 5.69987V5.69661C57.1227 5.50247 57.0216 5.32607 56.8717 5.19857C56.7213 5.071 56.5286 5.00009 56.3314 5H45.3255ZM80 42.5C80 44.9312 79.0335 47.262 77.3145 48.9811C75.5954 50.7002 73.2645 51.6667 70.8333 51.6667H36.6667C35.286 51.6667 34.1667 50.5474 34.1667 49.1667C34.1667 47.786 35.286 46.6667 36.6667 46.6667H70.8333C71.9384 46.6667 72.9979 46.2274 73.7793 45.446C74.5607 44.6646 75 43.6051 75 42.5V28.3333H53.3333V32.5C53.3333 33.8807 52.214 35 50.8333 35C49.4526 35 48.3333 33.8807 48.3333 32.5V28.3333H26.6667V42.5C26.6667 43.8807 25.5474 45 24.1667 45C22.786 45 21.6667 43.8807 21.6667 42.5V19.1667C21.6667 16.7355 22.6331 14.4046 24.3522 12.6855C26.0713 10.9665 28.4022 10 30.8333 10H38.7142L39.5703 4.8763L39.6777 4.37174C39.979 3.20747 40.6344 2.15875 41.5592 1.37695C42.614 0.485693 43.9513 0.00155773 45.332 0.00325521V0H56.3346L56.849 0.0227865C58.0442 0.129144 59.1825 0.602119 60.1042 1.38346C61.1564 2.27567 61.8595 3.51232 62.0866 4.87305L62.946 10H70.8333C73.2645 10 75.5954 10.9665 77.3145 12.6855C79.0335 14.4046 80 16.7355 80 19.1667V42.5Z" fill="#8F8F8F"/>
</svg>
