<?xml version="1.0" encoding="UTF-8"?>
<svg id="Layer_2" data-name="Layer 2" xmlns="http://www.w3.org/2000/svg" viewBox="0 0 339.08 339.15">
  <defs>
    <style>
      .cls-1 {
        fill: #fff;
      }

      .cls-2 {
        fill: #144372;
      }
    </style>
  </defs>
  <g id="Layer_1-2" data-name="Layer 1">
    <g>
      <rect class="cls-1" y="0" width="339.08" height="339.08"/>
      <path class="cls-2" d="M0,0v339.15h339.08V0H0ZM135.03,141.97c-1.19,3.16-2.26,7.43-7.55,7.43-9.89,0-19.49-19.13-33.75-19.13-4.46-.14-8.27,3.19-8.72,7.63-1.33,15.22,39.11,23.74,37.38,43.36-1.57,18.06-29.73,26.93-49.73,26.93-10.92.1-21.8-1.46-32.26-4.62-8.48-3.01-10.47-6.55-9.84-13.63.33-3.7,1.91-11.3,8.35-11.3,11.51,0,23.64,24.42,37.89,24.42,6.22.13,11.59-4.31,12.64-10.44.71-7.97-9.13-13.81-15.85-18.59-9.34-6.37-23.22-15.93-22.27-26.72.66-7.63,7.84-13.46,16.43-17.01,10.28-3.93,21.23-5.79,32.24-5.48,7.59,0,37.86,1.05,37.02,10.62-.41,2.25-1.07,4.44-1.96,6.54ZM226.59,132.55c-1.73,3.9-.75,3.39-5.82,3.39h-18.87l-19.24,41.07c-2.48,4.65-4.38,9.58-5.65,14.69-.12,1.39.44,2.83,2.74,2.83,8.98,0,21.43-16.13,25.57-16.13,1.37,0,2.91.88,2.82,1.95-.34,4.08-10.71,12.03-14.18,14.69-9.04,6.36-22.07,13.11-34.27,13.11-11.26,0-16.31-5.51-15.61-13.82,1.46-7.46,4.11-14.63,7.87-21.24l17.75-37.16h-14.51c-.23,0-4.63.34-4.57-.38.2-.81.5-1.59.9-2.32,1.72-3.86.75-3.35,6.03-3.35h14.96l8.47-17.89c3.12-6.91,3.52-6.18,13.21-6.36h9.2c1.38-.18,12.06-1.05,11.85,1.41-.37,1.67-.99,3.28-1.82,4.78l-8.45,18.06h18.39c.23,0,4.41-.35,4.33.34-.26.83-.63,1.61-1.1,2.34v-.02ZM281.87,193.46c-10.99,7.61-24.75,14.69-39.48,14.69-8.29,0-13.76-3.01-13.16-9.75.79-9.2,13.06-28.5,18.91-37.53,1.64-2.82,11.99-18.75,12.29-21.94.11-1.27-.82-2.38-2.09-2.5-.16-.01-.31-.01-.47,0-8.5,0-20.88,15.41-25.04,15.41-1.62,0-2.9-1.23-2.8-2.31.28-3.18,10.85-10.78,13.81-12.92,10.6-7.36,23.11-11.48,36.01-11.85,8.73,0,15.07,3.36,14.48,10.43-.49,5.67-9.38,20.53-12.65,26.37l-11.14,19.47c-2.15,3-3.77,6.35-4.77,9.9-.14,1.24.76,2.36,2,2.5.18.02.36.02.54,0,4.38,0,15.71-8.85,18.25-11.34,1.25-1.05,3.77-3.72,5.84-3.72,1.15,0,2.66,1.07,2.58,1.95-.28,3.4-10.15,11.02-13.11,13.15v-.02ZM308.62,104.24c-.67,8.14-9.35,14.16-19.06,14.16-8.82,0-14.23-4.79-13.64-12.06.64-7.79,9.35-14.15,18.79-14.15,8.63.03,14.48,4.81,13.9,12.06v-.02Z"/>
    </g>
  </g>
</svg>