<svg width="80" height="80" viewBox="0 0 80 80" fill="none" xmlns="http://www.w3.org/2000/svg">
<path d="M57.15 45.7V34.2749H22.85V45.7H0V80H80V45.7H57.15ZM22.85 76.175H3.825V49.525H22.85V76.175ZM53.325 76.175H26.675V38.0999H53.325V76.175ZM76.2 76.175H57.15V49.525H76.2V76.175Z" fill="#8F8F8F"/>
<path d="M72.3751 53.3251H60.9501V57.1501H68.5751V60.9501H60.9501V64.7501H68.5751V68.5751H60.9501V72.3751H72.3751V53.3251ZM64.7751 15.225H72.3751V19.05H64.7751V15.225ZM60.9501 0H64.7751V3.8H60.9501V0ZM57.1501 3.8H60.9501V7.62501H57.1501V3.8ZM45.7251 57.1501H41.9001V41.9001H34.3001V45.7001H38.1001V57.1501H34.3001V60.9501H45.7251V57.1501ZM38.1001 0H41.9001V7.62501H38.1001V0ZM22.8501 11.425V26.65H26.6751V30.475H53.3251V26.65H57.1501V11.425H53.3251V15.225H49.5251V19.05H45.7251V15.225H41.9001V11.425H38.1001V15.225H34.3001V19.05H30.4751V15.225H26.6751V11.425H22.8501ZM45.7251 22.85H49.5251V26.65H45.7251V22.85ZM38.1001 22.85H41.9001V26.65H38.1001V22.85ZM30.4751 22.85H34.3001V26.65H30.4751V22.85ZM19.0501 3.8H22.8501V7.62501H19.0501V3.8ZM15.2501 0H19.0501V3.8H15.2501V0ZM19.0501 68.5751H11.4251V64.7501H19.0501V53.3251H7.62512V57.1501H15.2501V60.9501H7.62512V72.3751H19.0501V68.5751ZM7.62512 15.225H15.2501V19.05H7.62512V15.225Z" fill="#8F8F8F"/>
</svg>
