<?xml version="1.0" encoding="UTF-8"?>
<svg id="Layer_2" data-name="Layer 2" xmlns="http://www.w3.org/2000/svg" xmlns:xlink="http://www.w3.org/1999/xlink" viewBox="0 0 302.65 302.66">
  <defs>
    <style>
      .cls-1 {
        fill: url(#linear-gradient-4);
      }

      .cls-2 {
        fill: url(#linear-gradient-3);
      }

      .cls-3 {
        fill: url(#linear-gradient-2);
      }

      .cls-4 {
        fill: url(#linear-gradient);
      }

      .cls-5 {
        fill: #fff;
      }
    </style>
    <linearGradient id="linear-gradient" x1="-1821.62" y1="44.44" x2="-1819.4" y2="44.44" gradientTransform="translate(-4421.45 -185571.58) rotate(-90) scale(102.04)" gradientUnits="userSpaceOnUse">
      <stop offset="0" stop-color="#77c8d7"/>
      <stop offset=".1" stop-color="#77c8d7"/>
      <stop offset=".56" stop-color="#0094c8"/>
      <stop offset="1" stop-color="#5b4998"/>
    </linearGradient>
    <linearGradient id="linear-gradient-2" x1="-1821.21" y1="44.85" x2="-1818.99" y2="44.85" gradientTransform="translate(-4387.38 -185603) rotate(-90) scale(102.04)" gradientUnits="userSpaceOnUse">
      <stop offset="0" stop-color="#00a8ce"/>
      <stop offset=".45" stop-color="#4f95c3"/>
      <stop offset=".8" stop-color="#4a5ba4"/>
      <stop offset=".9" stop-color="#694295"/>
      <stop offset="1" stop-color="#684898"/>
      <stop offset="1" stop-color="#684898"/>
    </linearGradient>
    <linearGradient id="linear-gradient-3" x1="-1802.57" y1="26.02" x2="-1800.35" y2="26.02" gradientTransform="translate(183927.4 -2541.69) scale(102.04)" gradientUnits="userSpaceOnUse">
      <stop offset="0" stop-color="#77c8d7"/>
      <stop offset=".11" stop-color="#6eb8c6"/>
      <stop offset=".37" stop-color="#00aace"/>
      <stop offset=".62" stop-color="#4f96c4"/>
      <stop offset=".9" stop-color="#6a3b90"/>
      <stop offset="1" stop-color="#602e87"/>
    </linearGradient>
    <linearGradient id="linear-gradient-4" x1="-1802.16" y1="26.43" x2="-1799.94" y2="26.43" gradientTransform="translate(183961.43 -2507.67) scale(102.04)" gradientUnits="userSpaceOnUse">
      <stop offset="0" stop-color="#62c1c7"/>
      <stop offset=".25" stop-color="#07b3c9"/>
      <stop offset=".72" stop-color="#44579d"/>
      <stop offset=".9" stop-color="#684898"/>
      <stop offset="1" stop-color="#684898"/>
    </linearGradient>
  </defs>
  <g id="Layer_1-2" data-name="Layer 1">
    <g>
      <path id="path28853" class="cls-5" d="M302.19,151.38c-.09-.04-.19-.06-.29-.06h-74.88s0-74.45,0-74.45c0-.26-.04-.51-.1-.75,0-.02,0-.03-.02-.05-.14-.5-.4-.96-.76-1.32L152.59.22s-.07-.07-.11-.09c-.04-.03-.08-.05-.13-.07-.04-.02-.09-.03-.14-.04-.05,0-.1,0-.15,0-.2,0-.39.08-.53.22-.13.13-.22.32-.22.53v74.89h-74.45c-.26,0-.5.04-.74.1-.02,0-.03,0-.04.02-.5.14-.96.39-1.32.76L.22,150.06s-.07.07-.09.11c-.03.04-.05.08-.07.13-.02.04-.04.09-.05.14,0,.05-.01.1-.01.15,0,.41.33.75.74.75h74.89v74.45c0,.26.04.51.11.75,0,0,0,.03,0,.04.14.5.39.96.75,1.32l73.54,74.54s.07.07.11.09c.04.03.08.05.13.07.04.02.09.03.14.04.05,0,.09.02.15.02.42,0,.75-.34.75-.74v-74.89h74.45c.26,0,.5-.04.74-.11.02,0,.03,0,.05-.02.5-.14.96-.39,1.32-.76l74.54-73.54s.06-.07.09-.11c.03-.04.05-.08.07-.13.02-.04.03-.09.04-.14s.02-.1.02-.15c0-.31-.19-.57-.46-.69"/>
      <path id="path28881" class="cls-5" d="M301.9,151.32h-74.88v-74.45c0-.26-.04-.5-.11-.74,0-.02,0-.03-.02-.05-.14-.5-.39-.96-.76-1.32L152.6.21s-.07-.06-.11-.09c-.04-.03-.08-.05-.13-.07-.04-.02-.09-.03-.14-.04-.05,0-.1,0-.15,0-.41,0-.74.33-.74.74v74.89h-74.45c-.26,0-.5.04-.74.1-.02,0-.03,0-.04.02-.5.14-.96.39-1.32.76L.23,150.06s-.07.07-.09.11c-.03.04-.05.08-.07.12-.02.05-.03.09-.04.14-.01.05-.02.1-.02.15,0,.42.33.75.74.75h74.89s0,74.45,0,74.45c0,.26.04.51.11.75,0,0,0,.03,0,.04.14.5.4.96.76,1.32l73.54,74.54s.07.07.11.09c.04.03.08.05.12.07.04.02.09.03.14.04s.1.02.15.02c.42,0,.75-.34.75-.75v-74.89h74.45c.26,0,.51-.04.74-.11.02,0,.03,0,.05-.02.5-.14.96-.39,1.32-.76l74.54-73.54s.07-.08.09-.12c.03-.04.05-.08.07-.12.02-.04.03-.09.04-.14s.02-.1.02-.15c0-.41-.34-.75-.75-.75"/>
      <path id="path28889" class="cls-4" d="M75.64,76.44v149.34c0,.82.33,1.57.87,2.11h0l73.54,74.54s.07.07.11.09h0s.08.05.13.07h0s.09.03.14.04h0c.05,0,.1.02.15.02h0c.41,0,.75-.34.75-.74h0v-150.58l-74.42-75.41s-.07-.07-.11-.09h0s-.08-.05-.12-.07h0s-.09-.03-.14-.05h0c-.05,0-.1,0-.15,0h0c-.42,0-.75.34-.75.75"/>
      <path id="path28929" class="cls-3" d="M151.33.75v150.57l74.41,75.42s.08.06.11.09h0s.08.05.13.07h0s.09.03.14.04h0c.05,0,.1.02.15.02h0c.41,0,.75-.34.75-.75h0V76.87c0-.82-.33-1.57-.88-2.11h0L152.6.22s-.07-.06-.11-.09h0s-.08-.05-.13-.07h0s-.09-.03-.14-.05h0c-.05,0-.1,0-.15,0h0c-.41,0-.74.33-.74.74"/>
      <path id="path28969" class="cls-2" d="M76.87,75.64c-.82,0-1.57.33-2.11.87h0L.23,150.05s-.07.07-.09.11H.13s-.05.08-.07.13H.06s-.04.09-.04.14H.02c-.01.05-.02.1-.02.15H0c0,.42.34.75.74.75h150.58s75.41-74.42,75.41-74.42c.03-.03.07-.07.09-.11h0s.05-.08.07-.13h0s.03-.09.04-.14h0c0-.05.02-.1.02-.15h0c0-.41-.34-.74-.75-.74H76.87Z"/>
      <path id="path29007" class="cls-1" d="M151.33,151.32l-75.42,74.41s-.06.07-.09.11h0s-.05.08-.07.13h0s-.03.09-.04.14h0c0,.05-.02.1-.02.15h0c0,.41.33.74.75.74h149.34c.82,0,1.57-.34,2.11-.88h0l74.54-73.53s.07-.08.09-.12h0s.05-.08.07-.12h0s.03-.09.04-.14h0c0-.05.02-.1.02-.15h0c0-.41-.34-.75-.75-.75h-150.57Z"/>
      <path id="path29023" class="cls-5" d="M217.51,168.85v10.91h4.03c4.11,0,6.28-1.87,6.28-5.53,0-4.26-3.36-5.38-6.5-5.38h-3.81ZM217.43,188.57v13.23h-9.56v-41.77h14.57c8.29,0,14.5,5.46,14.5,14.2,0,10.31-7.47,14.27-14.57,14.34h-4.93ZM175.52,187.53h8.52l-4.26-9.34-4.26,9.34ZM180,159.43l20.47,42.37h-9.86l-3.06-6.65h-15.46l-2.99,6.65h-9.64l20.55-42.37ZM137.93,109.66v10.91h4.04c4.11,0,6.28-1.87,6.28-5.53,0-4.26-3.36-5.38-6.5-5.38h-3.81ZM137.86,129.39v13.22h-9.56v-41.77h14.57c8.29,0,14.49,5.46,14.49,14.2,0,10.31-7.47,14.27-14.57,14.35h-4.93ZM155.86,167.58l-6.72,6.65c-2.39-3.74-5.53-5.9-10.16-5.9-6.8,0-11.66,4.93-11.66,12.71s4.93,12.48,11.73,12.48c4.64,0,8-2.17,10.39-5.9l6.73,6.65c-3.59,3.89-8.14,8.07-17.33,8.07-12.33,0-21.22-8.22-21.22-21.29s9.12-21.52,21.15-21.52c10.31,0,14.64,5.01,17.11,8.07M107.37,201.8h-9.56v-41.77h9.56v41.77ZM87.94,110.18v-9.34h29.36v9.34h-9.94v32.43h-9.56v-32.43h-9.86Z"/>
    </g>
  </g>
</svg>